<svg width="35" height="35" viewBox="0 0 35 35" fill="none" xmlns="http://www.w3.org/2000/svg">
<path fill-rule="evenodd" clip-rule="evenodd" d="M17.5 0C27.1661 0 35 7.83386 35 17.5C35 27.1661 27.1661 35 17.5 35C7.83386 35 0 27.1661 0 17.5C0 7.83386 7.83386 0 17.5 0ZM9.75603 17.9633C9.99111 16.6011 11.5468 15.8475 12.7706 16.5804C12.8813 16.6495 12.985 16.7256 13.0887 16.8155L13.0956 16.8224C13.6488 17.3479 14.2641 17.901 14.8726 18.4403L15.3981 18.9105L21.6209 12.3834C21.9874 12.0032 22.2639 11.7542 22.8171 11.6298C24.7254 11.208 26.0668 13.5381 24.7116 14.9694L16.9676 23.1006C16.2347 23.8819 14.9348 23.951 14.1466 23.2043C13.6972 22.7894 13.2062 22.3607 12.7153 21.932C11.858 21.1853 10.9868 20.4247 10.2746 19.678C9.839 19.2562 9.65923 18.551 9.75603 17.9633Z" fill="white"/>
</svg>
