<svg width="35" height="27" viewBox="0 0 35 27" fill="none" xmlns="http://www.w3.org/2000/svg">
<path fill-rule="evenodd" clip-rule="evenodd" d="M32.1716 8.07344C32.0763 8.06831 31.9726 8.06833 31.8652 8.06836L31.8383 8.06838H27.6224C24.1473 8.06838 21.1738 10.4077 21.1738 13.4583C21.1738 16.5088 24.1473 18.8482 27.6224 18.8482H31.8383H31.8652C31.9726 18.8482 32.0763 18.8483 32.1716 18.8431C33.5832 18.7668 34.8314 17.8222 34.9364 16.5028C34.9433 16.4162 34.9431 16.323 34.9431 16.2366V16.2132V10.7034V10.68C34.9431 10.5935 34.9433 10.5003 34.9364 10.4138C34.8314 9.09433 33.5832 8.14967 32.1716 8.07344ZM27.2486 14.8956C28.1432 14.8956 28.8684 14.2521 28.8684 13.4583C28.8684 12.6644 28.1432 12.021 27.2486 12.021C26.354 12.021 25.6286 12.6644 25.6286 13.4583C25.6286 14.2521 26.354 14.8956 27.2486 14.8956Z" fill="#FB2A63"/>
<path fill-rule="evenodd" clip-rule="evenodd" d="M31.8629 21.0041C32.1135 20.9985 32.3033 21.197 32.2352 21.4034C31.8979 22.4274 31.3623 23.3002 30.5031 24.0351C29.2453 25.1107 27.6504 25.588 25.68 25.8147C23.7653 26.0347 21.319 26.0347 18.2303 26.0347H14.6794C11.5907 26.0347 9.14425 26.0347 7.22962 25.8147C5.25918 25.588 3.66432 25.1107 2.40656 24.0351C1.14882 22.9595 0.590642 21.5954 0.325737 19.9103C0.0683098 18.273 0.0683265 16.1808 0.0683601 13.5393V13.3772C0.0683265 10.7358 0.0683098 8.64357 0.325737 7.00617C0.590642 5.32105 1.14882 3.95711 2.40656 2.88148C3.66432 1.80585 5.25918 1.32849 7.22962 1.10195C9.14425 0.881794 11.5907 0.881808 14.6794 0.881837H18.2303C21.319 0.881808 23.7653 0.881794 25.68 1.10195C27.6504 1.32849 29.2453 1.80585 30.5031 2.88148C31.3623 3.61634 31.8977 4.4891 32.2352 5.5131C32.3033 5.71945 32.1135 5.91797 31.8629 5.91241L27.6211 5.91243C22.8538 5.91243 18.6516 9.13329 18.6516 13.4583C18.6516 17.7833 22.8538 21.0041 27.6211 21.0041H31.8629ZM6.37084 6.63107C5.67469 6.63107 5.11034 7.1137 5.11034 7.70905C5.11034 8.30439 5.67469 8.78703 6.37084 8.78703H13.0935C13.7896 8.78703 14.354 8.30439 14.354 7.70905C14.354 7.1137 13.7896 6.63107 13.0935 6.63107H6.37084Z" fill="#FB2A63"/>
</svg>
