<svg width="19" height="19" viewBox="0 0 19 19" fill="none" xmlns="http://www.w3.org/2000/svg">
<path d="M12.7468 11.7841L12.2885 12.2664C12.2885 12.2664 11.1994 13.413 8.22671 10.2832C5.254 7.15352 6.34308 6.00692 6.34308 6.00692L6.6316 5.70314C7.34244 4.95481 7.40944 3.75336 6.78924 2.87625L5.52073 1.08206C4.75317 -0.00352558 3.27001 -0.146931 2.39025 0.779286L0.811234 2.4417C0.375012 2.90097 0.0826885 3.49631 0.11814 4.15674C0.208831 5.84634 0.930807 9.48167 4.95949 13.7231C9.23171 18.2209 13.2403 18.3997 14.8796 18.2379C15.3981 18.1868 15.849 17.9071 16.2123 17.5245L17.6415 16.0201C18.6061 15.0044 18.3341 13.2633 17.0998 12.5529L15.1779 11.4466C14.3674 10.9802 13.3802 11.1172 12.7468 11.7841Z" fill="#FB2A63"/>
</svg>
