<svg width="28" height="32" viewBox="0 0 28 32" fill="none" xmlns="http://www.w3.org/2000/svg">
<mask id="mask0_7330_319" style="mask-type:luminance" maskUnits="userSpaceOnUse" x="0" y="0" width="28" height="32">
<path d="M27.1191 0H0.879139V32H27.1191V0Z" fill="white"/>
</mask>
<g mask="url(#mask0_7330_319)">
<path d="M13.9969 0C21.2289 0 27.1133 5.88433 27.1133 13.1163C27.1133 21.9307 14.8466 31.488 14.3239 31.8897C14.2279 31.9643 14.1106 32 13.9969 32C13.8866 32 13.7799 31.968 13.6876 31.9003C13.5596 31.808 0.880281 22.0373 0.880281 13.1163C0.880281 5.88433 6.76495 0 13.9969 0ZM5.70161 11.7157C5.70161 11.7227 5.70161 11.7297 5.70161 11.737C5.70161 11.7547 5.70528 11.776 5.70895 11.7937C5.70895 11.8043 5.71228 11.815 5.71595 11.8257C5.71961 11.8437 5.72295 11.8577 5.73028 11.8757C5.73361 11.8863 5.74095 11.9003 5.74795 11.911C5.75495 11.9253 5.75862 11.9397 5.76928 11.9503C5.77628 11.9643 5.78695 11.9787 5.79428 11.9893C5.80128 11.9963 5.80495 12.0037 5.81195 12.0107C5.81195 12.0143 5.81561 12.0177 5.81895 12.0177C5.83328 12.0357 5.85095 12.0497 5.86528 12.0603C5.87595 12.0677 5.87961 12.0747 5.89028 12.0783C5.90795 12.096 5.93295 12.1067 5.95428 12.1173C5.95761 12.121 5.96128 12.1247 5.96495 12.1247C6.02161 12.1493 6.08228 12.1637 6.14628 12.1637H6.91761V18.8517C6.91761 19.097 7.11695 19.2963 7.36228 19.2963H11.4616C11.7069 19.2963 11.9063 19.097 11.9063 18.8517V16.377C11.9063 15.819 12.1229 15.2927 12.5179 14.898C12.9126 14.5067 13.4386 14.2863 13.9969 14.2863C15.1489 14.2863 16.0876 15.225 16.0876 16.377V18.8517C16.0876 19.097 16.2866 19.2963 16.5319 19.2963H20.6316C20.8769 19.2963 21.0759 19.097 21.0759 18.8517V12.1637H21.8476C21.9116 12.1637 21.9719 12.1497 22.0289 12.1247L22.0323 12.121C22.0573 12.1103 22.0823 12.0963 22.1069 12.0783C22.1106 12.075 22.1176 12.0713 22.1249 12.0643C22.1426 12.05 22.1603 12.0357 22.1746 12.018C22.1783 12.0147 22.1816 12.0147 22.1816 12.011C22.1889 12.0037 22.1889 12.0003 22.1959 11.993C22.2066 11.979 22.2173 11.9647 22.2279 11.9503C22.2349 11.9397 22.2386 11.9257 22.2456 11.915C22.2529 11.9007 22.2599 11.8863 22.2636 11.8723C22.2706 11.858 22.2743 11.8437 22.2776 11.833C22.2813 11.819 22.2849 11.8047 22.2849 11.7903C22.2883 11.7727 22.2919 11.7583 22.2919 11.7407C22.2919 11.7333 22.2919 11.7263 22.2919 11.7157C22.2919 11.7123 22.2919 11.7087 22.2919 11.705C22.2919 11.6873 22.2883 11.6697 22.2883 11.6517C22.2849 11.641 22.2849 11.627 22.2813 11.6163C22.2776 11.5983 22.2706 11.5843 22.2669 11.5663C22.2636 11.5557 22.2599 11.545 22.2529 11.5343C22.2456 11.5203 22.2386 11.5023 22.2279 11.4883C22.2246 11.4777 22.2173 11.4703 22.2139 11.4597C22.2033 11.4457 22.1889 11.4313 22.1783 11.4207C22.1713 11.41 22.1643 11.4027 22.1533 11.3957C22.1499 11.3923 22.1463 11.385 22.1426 11.3817L20.9303 10.315C20.9266 10.311 14.2919 4.473 14.2919 4.473C14.2883 4.46933 14.2813 4.46567 14.2776 4.46233C14.2669 4.455 14.2529 4.44433 14.2423 4.43733C14.2349 4.43367 14.2279 4.42667 14.2243 4.423C14.2173 4.41967 14.2103 4.416 14.2029 4.41233C14.1923 4.409 14.1783 4.40167 14.1676 4.39833C14.1603 4.39467 14.1533 4.391 14.1463 4.38767C14.1389 4.38767 14.1319 4.384 14.1249 4.38033C14.1106 4.377 14.0999 4.37333 14.0893 4.37333C14.0823 4.36967 14.0749 4.36967 14.0679 4.36967C14.0573 4.36633 14.0503 4.36633 14.0396 4.36633C14.0289 4.36267 14.0183 4.36267 14.0076 4.36267C14.0003 4.36267 13.9933 4.36267 13.9863 4.36267C13.9756 4.36267 13.9649 4.36267 13.9543 4.36633C13.9436 4.36633 13.9363 4.36633 13.9256 4.36967C13.9186 4.36967 13.9116 4.36967 13.9043 4.37333C13.8936 4.37333 13.8829 4.377 13.8689 4.38033C13.8616 4.384 13.8546 4.38767 13.8439 4.38767C13.8403 4.391 13.8333 4.39467 13.8263 4.39833C13.8156 4.40167 13.8013 4.409 13.7906 4.41233C13.7836 4.416 13.7763 4.41967 13.7693 4.423C13.7656 4.42667 13.7623 4.43033 13.7586 4.43033C13.7586 4.43367 13.7549 4.43367 13.7549 4.43733C13.7409 4.44467 13.7266 4.45167 13.7159 4.46233C13.7123 4.46567 13.7053 4.46933 13.7016 4.473L7.06695 10.311L5.85095 11.3813C5.84761 11.385 5.84395 11.392 5.83695 11.3957C5.82961 11.4027 5.82628 11.4097 5.81895 11.417C5.80495 11.431 5.79062 11.4453 5.77995 11.463C5.77628 11.4703 5.77262 11.4773 5.76928 11.481C5.75862 11.4987 5.74795 11.52 5.73728 11.5377C5.73361 11.545 5.73361 11.552 5.72995 11.559C5.72295 11.5803 5.71595 11.5983 5.71228 11.6197C5.70861 11.6267 5.70861 11.6373 5.70861 11.6443C5.70528 11.6657 5.70161 11.687 5.70161 11.7083C5.70161 11.712 5.70161 11.712 5.70161 11.7157Z" fill="white"/>
</g>
</svg>
